<mxfile host="65bd71144e">
    <diagram id="c6EVDz8tjRQeZrMTbVU9" name="Page-1">
        <mxGraphModel dx="2054" dy="585" grid="1" gridSize="10" guides="1" tooltips="1" connect="1" arrows="1" fold="1" page="1" pageScale="1" pageWidth="850" pageHeight="1100" math="0" shadow="0">
            <root>
                <mxCell id="0"/>
                <mxCell id="1" parent="0"/>
                <mxCell id="ZlFfDrjsdb5CNxVAKtxK-7" value="" style="edgeStyle=none;html=1;" edge="1" parent="1" source="ZlFfDrjsdb5CNxVAKtxK-4" target="ZlFfDrjsdb5CNxVAKtxK-6">
                    <mxGeometry relative="1" as="geometry"/>
                </mxCell>
                <mxCell id="ZlFfDrjsdb5CNxVAKtxK-14" style="edgeStyle=none;html=1;" edge="1" parent="1" source="ZlFfDrjsdb5CNxVAKtxK-4" target="ZlFfDrjsdb5CNxVAKtxK-13">
                    <mxGeometry relative="1" as="geometry">
                        <Array as="points">
                            <mxPoint x="12" y="470"/>
                            <mxPoint x="-138" y="470"/>
                        </Array>
                    </mxGeometry>
                </mxCell>
                <mxCell id="ZlFfDrjsdb5CNxVAKtxK-16" style="edgeStyle=none;html=1;" edge="1" parent="1" source="ZlFfDrjsdb5CNxVAKtxK-4" target="ZlFfDrjsdb5CNxVAKtxK-15">
                    <mxGeometry relative="1" as="geometry">
                        <Array as="points">
                            <mxPoint x="12" y="470"/>
                            <mxPoint x="152" y="470"/>
                        </Array>
                    </mxGeometry>
                </mxCell>
                <mxCell id="ZlFfDrjsdb5CNxVAKtxK-4" value="Home" style="rounded=1;whiteSpace=wrap;html=1;" vertex="1" parent="1">
                    <mxGeometry x="-28" y="390" width="80" height="30" as="geometry"/>
                </mxCell>
                <mxCell id="ZlFfDrjsdb5CNxVAKtxK-29" value="" style="edgeStyle=none;html=1;" edge="1" parent="1" source="ZlFfDrjsdb5CNxVAKtxK-6" target="ZlFfDrjsdb5CNxVAKtxK-28">
                    <mxGeometry relative="1" as="geometry">
                        <Array as="points">
                            <mxPoint x="12" y="565"/>
                        </Array>
                    </mxGeometry>
                </mxCell>
                <mxCell id="ZlFfDrjsdb5CNxVAKtxK-30" value="" style="edgeStyle=none;html=1;entryX=1;entryY=0.5;entryDx=0;entryDy=0;" edge="1" parent="1" source="ZlFfDrjsdb5CNxVAKtxK-6" target="ZlFfDrjsdb5CNxVAKtxK-31">
                    <mxGeometry relative="1" as="geometry">
                        <Array as="points">
                            <mxPoint x="12" y="595"/>
                        </Array>
                    </mxGeometry>
                </mxCell>
                <mxCell id="ZlFfDrjsdb5CNxVAKtxK-6" value="Contact" style="rounded=1;whiteSpace=wrap;html=1;" vertex="1" parent="1">
                    <mxGeometry x="-28" y="500" width="80" height="30" as="geometry"/>
                </mxCell>
                <mxCell id="ZlFfDrjsdb5CNxVAKtxK-19" style="edgeStyle=none;html=1;" edge="1" parent="1" source="ZlFfDrjsdb5CNxVAKtxK-13" target="ZlFfDrjsdb5CNxVAKtxK-18">
                    <mxGeometry relative="1" as="geometry">
                        <Array as="points">
                            <mxPoint x="-138" y="620"/>
                        </Array>
                    </mxGeometry>
                </mxCell>
                <mxCell id="ZlFfDrjsdb5CNxVAKtxK-23" value="" style="edgeStyle=none;html=1;" edge="1" parent="1" source="ZlFfDrjsdb5CNxVAKtxK-13" target="ZlFfDrjsdb5CNxVAKtxK-22">
                    <mxGeometry relative="1" as="geometry"/>
                </mxCell>
                <mxCell id="ZlFfDrjsdb5CNxVAKtxK-25" value="" style="edgeStyle=none;html=1;" edge="1" parent="1" source="ZlFfDrjsdb5CNxVAKtxK-13" target="ZlFfDrjsdb5CNxVAKtxK-24">
                    <mxGeometry relative="1" as="geometry">
                        <Array as="points">
                            <mxPoint x="-138" y="685"/>
                        </Array>
                    </mxGeometry>
                </mxCell>
                <mxCell id="ZlFfDrjsdb5CNxVAKtxK-13" value="About" style="rounded=1;whiteSpace=wrap;html=1;" vertex="1" parent="1">
                    <mxGeometry x="-178" y="495" width="80" height="30" as="geometry"/>
                </mxCell>
                <mxCell id="ZlFfDrjsdb5CNxVAKtxK-42" value="" style="edgeStyle=none;html=1;" edge="1" parent="1" source="ZlFfDrjsdb5CNxVAKtxK-15" target="ZlFfDrjsdb5CNxVAKtxK-41">
                    <mxGeometry relative="1" as="geometry">
                        <Array as="points">
                            <mxPoint x="152" y="550"/>
                            <mxPoint x="97" y="550"/>
                        </Array>
                    </mxGeometry>
                </mxCell>
                <mxCell id="ZlFfDrjsdb5CNxVAKtxK-44" value="" style="edgeStyle=none;html=1;" edge="1" parent="1" source="ZlFfDrjsdb5CNxVAKtxK-15" target="ZlFfDrjsdb5CNxVAKtxK-43">
                    <mxGeometry relative="1" as="geometry">
                        <Array as="points">
                            <mxPoint x="152" y="550"/>
                            <mxPoint x="217" y="550"/>
                        </Array>
                    </mxGeometry>
                </mxCell>
                <mxCell id="ZlFfDrjsdb5CNxVAKtxK-15" value="Projects" style="rounded=1;whiteSpace=wrap;html=1;" vertex="1" parent="1">
                    <mxGeometry x="112" y="495" width="80" height="30" as="geometry"/>
                </mxCell>
                <mxCell id="ZlFfDrjsdb5CNxVAKtxK-18" value="My Works" style="rounded=1;whiteSpace=wrap;html=1;" vertex="1" parent="1">
                    <mxGeometry x="-238" y="610" width="80" height="30" as="geometry"/>
                </mxCell>
                <mxCell id="ZlFfDrjsdb5CNxVAKtxK-22" value="CV Download" style="rhombus;whiteSpace=wrap;html=1;rounded=1;" vertex="1" parent="1">
                    <mxGeometry x="-338" y="470" width="80" height="80" as="geometry"/>
                </mxCell>
                <mxCell id="ZlFfDrjsdb5CNxVAKtxK-24" value="Skills" style="whiteSpace=wrap;html=1;rounded=1;" vertex="1" parent="1">
                    <mxGeometry x="-238" y="670" width="80" height="30" as="geometry"/>
                </mxCell>
                <mxCell id="ZlFfDrjsdb5CNxVAKtxK-28" value="WhatsApp" style="ellipse;whiteSpace=wrap;html=1;rounded=1;" vertex="1" parent="1">
                    <mxGeometry x="-58" y="550" width="50" height="30" as="geometry"/>
                </mxCell>
                <mxCell id="ZlFfDrjsdb5CNxVAKtxK-31" value="GitHub" style="ellipse;whiteSpace=wrap;html=1;rounded=1;" vertex="1" parent="1">
                    <mxGeometry x="-58" y="580" width="50" height="30" as="geometry"/>
                </mxCell>
                <mxCell id="ZlFfDrjsdb5CNxVAKtxK-32" value="FaceBook" style="ellipse;whiteSpace=wrap;html=1;rounded=1;" vertex="1" parent="1">
                    <mxGeometry x="-58" y="610" width="50" height="30" as="geometry"/>
                </mxCell>
                <mxCell id="ZlFfDrjsdb5CNxVAKtxK-33" value="Twitter" style="ellipse;whiteSpace=wrap;html=1;rounded=1;" vertex="1" parent="1">
                    <mxGeometry x="-58" y="640" width="50" height="30" as="geometry"/>
                </mxCell>
                <mxCell id="ZlFfDrjsdb5CNxVAKtxK-34" value="Instagram" style="ellipse;whiteSpace=wrap;html=1;rounded=1;" vertex="1" parent="1">
                    <mxGeometry x="-58" y="670" width="50" height="30" as="geometry"/>
                </mxCell>
                <mxCell id="ZlFfDrjsdb5CNxVAKtxK-36" value="LinkedIn" style="ellipse;whiteSpace=wrap;html=1;rounded=1;" vertex="1" parent="1">
                    <mxGeometry x="-58" y="700" width="50" height="30" as="geometry"/>
                </mxCell>
                <mxCell id="ZlFfDrjsdb5CNxVAKtxK-37" value="" style="edgeStyle=none;html=1;entryX=1;entryY=0.5;entryDx=0;entryDy=0;exitX=0.5;exitY=1;exitDx=0;exitDy=0;" edge="1" parent="1">
                    <mxGeometry relative="1" as="geometry">
                        <mxPoint x="12" y="530" as="sourcePoint"/>
                        <mxPoint x="-8" y="625" as="targetPoint"/>
                        <Array as="points">
                            <mxPoint x="12" y="625"/>
                        </Array>
                    </mxGeometry>
                </mxCell>
                <mxCell id="ZlFfDrjsdb5CNxVAKtxK-38" value="" style="edgeStyle=none;html=1;entryX=1;entryY=0.5;entryDx=0;entryDy=0;exitX=0.5;exitY=1;exitDx=0;exitDy=0;" edge="1" parent="1">
                    <mxGeometry relative="1" as="geometry">
                        <mxPoint x="12" y="560" as="sourcePoint"/>
                        <mxPoint x="-8" y="655" as="targetPoint"/>
                        <Array as="points">
                            <mxPoint x="12" y="655"/>
                        </Array>
                    </mxGeometry>
                </mxCell>
                <mxCell id="ZlFfDrjsdb5CNxVAKtxK-39" value="" style="edgeStyle=none;html=1;entryX=1;entryY=0.5;entryDx=0;entryDy=0;exitX=0.5;exitY=1;exitDx=0;exitDy=0;" edge="1" parent="1">
                    <mxGeometry relative="1" as="geometry">
                        <mxPoint x="12" y="590" as="sourcePoint"/>
                        <mxPoint x="-8" y="685" as="targetPoint"/>
                        <Array as="points">
                            <mxPoint x="12" y="685"/>
                        </Array>
                    </mxGeometry>
                </mxCell>
                <mxCell id="ZlFfDrjsdb5CNxVAKtxK-40" value="" style="edgeStyle=none;html=1;entryX=1;entryY=0.5;entryDx=0;entryDy=0;exitX=0.5;exitY=1;exitDx=0;exitDy=0;" edge="1" parent="1">
                    <mxGeometry relative="1" as="geometry">
                        <mxPoint x="12" y="620" as="sourcePoint"/>
                        <mxPoint x="-8" y="715" as="targetPoint"/>
                        <Array as="points">
                            <mxPoint x="12" y="715"/>
                        </Array>
                    </mxGeometry>
                </mxCell>
                <mxCell id="ZlFfDrjsdb5CNxVAKtxK-41" value="Graphics &amp;amp;&lt;br&gt;Animations" style="whiteSpace=wrap;html=1;rounded=1;" vertex="1" parent="1">
                    <mxGeometry x="52" y="570" width="90" height="30" as="geometry"/>
                </mxCell>
                <mxCell id="ZlFfDrjsdb5CNxVAKtxK-43" value="Website Projects" style="whiteSpace=wrap;html=1;rounded=1;" vertex="1" parent="1">
                    <mxGeometry x="182" y="570" width="70" height="30" as="geometry"/>
                </mxCell>
            </root>
        </mxGraphModel>
    </diagram>
</mxfile>